<?xml version="1.0" encoding="iso-8859-1"?>
<!-- Generator: Adobe Illustrator 16.0.0, SVG Export Plug-In . SVG Version: 6.00 Build 0)  -->
<!DOCTYPE svg PUBLIC "-//W3C//DTD SVG 1.1//EN" "http://www.w3.org/Graphics/SVG/1.1/DTD/svg11.dtd">
<svg version="1.1" id="Capa_1" xmlns="http://www.w3.org/2000/svg" xmlns:xlink="http://www.w3.org/1999/xlink" x="0px" y="0px"
	 width="17.457px" height="17.457px" viewBox="0 0 17.457 17.457" style="enable-background:new 0 0 17.457 17.457;"
	 xml:space="preserve">
<g>
	<g>
		<polygon points="9.979,17.457 12.461,17.457 15.758,8.957 9.979,8.957 		"/>
		<polygon points="4.996,17.457 7.479,17.457 7.479,8.957 1.699,8.957 		"/>
		<path d="M4.167,1.342C2.969,1.071,2.265,1.719,2.265,2.206c0,1.459,1.248,2.024,2.813,2.2c1.418,0.16,2.357-0.011,2.357-0.497
			C7.436,3.422,5.56,1.656,4.167,1.342z M2.861,2.457L2.806,2.562C2.779,2.439,2.765,2.318,2.765,2.206
			c0-0.104,0.258-0.428,0.857-0.428c0.138,0,0.284,0.017,0.435,0.051c0.42,0.095,0.88,0.339,1.308,0.628H2.861z"/>
		<path d="M13.291,1.342c-1.393,0.314-3.269,2.08-3.269,2.567c0,0.486,0.938,0.657,2.356,0.497c1.565-0.176,2.813-0.741,2.813-2.2
			C15.193,1.719,14.488,1.071,13.291,1.342z M14.652,2.562l-0.057-0.105h-2.5c0.428-0.291,0.887-0.533,1.307-0.628
			c0.15-0.034,0.297-0.051,0.435-0.051c0.599,0,0.856,0.324,0.856,0.428C14.693,2.318,14.677,2.439,14.652,2.562z"/>
		<path d="M16.956,1.753C16.956,0.91,16.064,0,14.624,0c-0.272,0-0.558,0.033-0.847,0.099c-1.264,0.285-2.805,1.379-3.786,2.358
			H9.979V2.47C9.847,2.603,9.724,2.733,9.615,2.859c-0.5-0.375-1.271-0.375-1.771,0C7.734,2.733,7.61,2.602,7.479,2.47V2.457H7.466
			C6.485,1.477,4.942,0.383,3.68,0.099C3.391,0.034,3.105,0,2.833,0c-1.44,0-2.332,0.91-2.332,1.753c0,1.119,0.47,1.968,1.369,2.562
			L0.729,6.457h6.75v-1.34c0.058-0.019,0.135-0.026,0.188-0.048c0.271,0.283,0.65,0.45,1.062,0.45c0.413,0,0.792-0.167,1.062-0.45
			C9.845,5.09,9.917,5.102,9.979,5.121v1.336h6.75l-1.143-2.143C16.486,3.721,16.956,2.872,16.956,1.753z M9.637,4.396
			C9.496,4.76,9.144,5.019,8.729,5.019c-0.414,0-0.767-0.259-0.908-0.623C7.43,4.781,6.328,4.896,4.8,4.724
			C2.688,4.487,1.001,3.722,1.001,1.752c0-0.657,0.95-1.532,2.568-1.167c1.607,0.362,3.684,2.152,4.258,3.077
			c0.147-0.352,0.495-0.599,0.9-0.599c0.406,0,0.754,0.247,0.901,0.6c0.573-0.926,2.648-2.715,4.258-3.078
			c1.617-0.365,2.567,0.51,2.567,1.167c0,1.97-1.687,2.734-3.8,2.972C11.129,4.896,10.027,4.781,9.637,4.396z"/>
	</g>
</g>
<g>
</g>
<g>
</g>
<g>
</g>
<g>
</g>
<g>
</g>
<g>
</g>
<g>
</g>
<g>
</g>
<g>
</g>
<g>
</g>
<g>
</g>
<g>
</g>
<g>
</g>
<g>
</g>
<g>
</g>
</svg>
